<?xml version="1.0" encoding="UTF-8" standalone="no"?>
<!DOCTYPE svg PUBLIC "-//W3C//DTD SVG 1.1//EN"
 "http://www.w3.org/Graphics/SVG/1.1/DTD/svg11.dtd">
<!-- Generated by graphviz version 9.0.0 (0)
 -->
<!-- Title: G Pages: 1 -->
<svg width="1599pt" height="1600pt"
 viewBox="0.00 0.00 1599.00 1600.00" xmlns="http://www.w3.org/2000/svg" xmlns:xlink="http://www.w3.org/1999/xlink">
<g id="graph0" class="graph" transform="scale(1 1) rotate(0) translate(4 1596)">
<title>G</title>
<polygon fill="white" stroke="none" points="-4,4 -4,-1596 1595,-1596 1595,4 -4,4"/>
<!-- ql -->
<g id="node1" class="node">
<title>ql</title>
<polygon fill="none" stroke="black" points="813.45,-795.09 759.45,-795.09 759.45,-759.09 813.45,-759.09 813.45,-795.09"/>
<text text-anchor="middle" x="786.45" y="-772.42" font-family="Times,serif" font-size="14.00">ql</text>
</g>
<!-- rx -->
<g id="node24" class="node">
<title>rx</title>
<ellipse fill="none" stroke="black" cx="720.3" cy="-663.01" rx="27" ry="18"/>
<text text-anchor="middle" x="720.3" y="-658.33" font-family="Times,serif" font-size="14.00">rx</text>
</g>
<!-- ql&#45;&gt;rx -->
<g id="edge14" class="edge">
<title>ql&#45;&gt;rx</title>
<path fill="none" stroke="black" d="M775.82,-758.76C765.03,-740.14 748.19,-711.1 735.88,-689.88"/>
<polygon fill="black" stroke="black" points="739.05,-688.38 731.01,-681.48 733,-691.89 739.05,-688.38"/>
</g>
<!-- lr -->
<g id="node2" class="node">
<title>lr</title>
<polygon fill="none" stroke="black" points="1397.18,-1009.01 1343.18,-1009.01 1343.18,-973.01 1397.18,-973.01 1397.18,-1009.01"/>
<text text-anchor="middle" x="1370.18" y="-986.33" font-family="Times,serif" font-size="14.00">lr</text>
</g>
<!-- ss -->
<g id="node8" class="node">
<title>ss</title>
<polygon fill="none" stroke="black" points="1108.13,-897.66 1054.13,-897.66 1054.13,-861.66 1108.13,-861.66 1108.13,-897.66"/>
<text text-anchor="middle" x="1081.13" y="-874.98" font-family="Times,serif" font-size="14.00">ss</text>
</g>
<!-- lr&#45;&gt;ss -->
<g id="edge19" class="edge">
<title>lr&#45;&gt;ss</title>
<path fill="none" stroke="black" d="M1342.72,-980.43C1290.83,-960.44 1178.25,-917.07 1119.13,-894.3"/>
<polygon fill="black" stroke="black" points="1120.4,-891.04 1109.81,-890.71 1117.88,-897.57 1120.4,-891.04"/>
</g>
<!-- dp -->
<g id="node17" class="node">
<title>dp</title>
<ellipse fill="none" stroke="black" cx="1337.91" cy="-1140.88" rx="27" ry="18"/>
<text text-anchor="middle" x="1337.91" y="-1136.21" font-family="Times,serif" font-size="14.00">dp</text>
</g>
<!-- lr&#45;&gt;dp -->
<g id="edge20" class="edge">
<title>lr&#45;&gt;dp</title>
<path fill="none" stroke="black" d="M1366.22,-1009.39C1360.72,-1034.92 1350.72,-1081.39 1344.2,-1111.7"/>
<polygon fill="black" stroke="black" points="1340.8,-1110.83 1342.12,-1121.35 1347.65,-1112.31 1340.8,-1110.83"/>
</g>
<!-- js -->
<g id="node20" class="node">
<title>js</title>
<ellipse fill="none" stroke="black" cx="1126.57" cy="-935.73" rx="27" ry="18"/>
<text text-anchor="middle" x="1126.57" y="-931.06" font-family="Times,serif" font-size="14.00">js</text>
</g>
<!-- lr&#45;&gt;js -->
<g id="edge21" class="edge">
<title>lr&#45;&gt;js</title>
<path fill="none" stroke="black" d="M1342.76,-980.15C1299.34,-967.44 1214.64,-948.04 1165.12,-939.32"/>
<polygon fill="black" stroke="black" points="1165.86,-935.9 1155.42,-937.69 1164.7,-942.8 1165.86,-935.9"/>
</g>
<!-- gk -->
<g id="node25" class="node">
<title>gk</title>
<ellipse fill="none" stroke="black" cx="1563.78" cy="-1028.72" rx="27" ry="18"/>
<text text-anchor="middle" x="1563.78" y="-1024.04" font-family="Times,serif" font-size="14.00">gk</text>
</g>
<!-- lr&#45;&gt;gk -->
<g id="edge22" class="edge">
<title>lr&#45;&gt;gk</title>
<path fill="none" stroke="black" d="M1397.51,-996.33C1431.23,-1002.9 1488.73,-1014.1 1526.49,-1021.45"/>
<polygon fill="black" stroke="black" points="1525.55,-1024.84 1536.04,-1023.31 1526.89,-1017.97 1525.55,-1024.84"/>
</g>
<!-- rm -->
<g id="node30" class="node">
<title>rm</title>
<ellipse fill="none" stroke="black" cx="1494.25" cy="-1152.52" rx="27" ry="18"/>
<text text-anchor="middle" x="1494.25" y="-1147.85" font-family="Times,serif" font-size="14.00">rm</text>
</g>
<!-- lr&#45;&gt;rm -->
<g id="edge23" class="edge">
<title>lr&#45;&gt;rm</title>
<path fill="none" stroke="black" d="M1384.17,-1009.22C1406.43,-1038.21 1449.97,-1094.88 1475.11,-1127.6"/>
<polygon fill="black" stroke="black" points="1472.19,-1129.54 1481.05,-1135.34 1477.74,-1125.28 1472.19,-1129.54"/>
</g>
<!-- dc -->
<g id="node31" class="node">
<title>dc</title>
<ellipse fill="none" stroke="black" cx="1249.85" cy="-1042.49" rx="27" ry="18"/>
<text text-anchor="middle" x="1249.85" y="-1037.81" font-family="Times,serif" font-size="14.00">dc</text>
</g>
<!-- lr&#45;&gt;dc -->
<g id="edge24" class="edge">
<title>lr&#45;&gt;dc</title>
<path fill="none" stroke="black" d="M1342.87,-1002.69C1325.25,-1010.23 1302.21,-1020.09 1283.46,-1028.11"/>
<polygon fill="black" stroke="black" points="1282.21,-1024.84 1274.39,-1031.99 1284.96,-1031.27 1282.21,-1024.84"/>
</g>
<!-- bq -->
<g id="node32" class="node">
<title>bq</title>
<ellipse fill="none" stroke="black" cx="1490.68" cy="-1089.02" rx="27" ry="18"/>
<text text-anchor="middle" x="1490.68" y="-1084.34" font-family="Times,serif" font-size="14.00">bq</text>
</g>
<!-- lr&#45;&gt;bq -->
<g id="edge25" class="edge">
<title>lr&#45;&gt;bq</title>
<path fill="none" stroke="black" d="M1392.84,-1009.44C1413.15,-1025.96 1442.95,-1050.2 1464.32,-1067.58"/>
<polygon fill="black" stroke="black" points="1462.05,-1070.25 1472.02,-1073.84 1466.47,-1064.82 1462.05,-1070.25"/>
</g>
<!-- hl -->
<g id="node3" class="node">
<title>hl</title>
<polygon fill="none" stroke="black" points="254.49,-607.19 200.49,-607.19 200.49,-571.19 254.49,-571.19 254.49,-607.19"/>
<text text-anchor="middle" x="227.49" y="-584.51" font-family="Times,serif" font-size="14.00">hl</text>
</g>
<!-- mf -->
<g id="node6" class="node">
<title>mf</title>
<polygon fill="none" stroke="black" points="538.52,-685.38 484.52,-685.38 484.52,-649.38 538.52,-649.38 538.52,-685.38"/>
<text text-anchor="middle" x="511.52" y="-662.7" font-family="Times,serif" font-size="14.00">mf</text>
</g>
<!-- hl&#45;&gt;mf -->
<g id="edge30" class="edge">
<title>hl&#45;&gt;mf</title>
<path fill="none" stroke="black" d="M254.98,-596.76C306.01,-610.81 415.47,-640.94 473.53,-656.92"/>
<polygon fill="black" stroke="black" points="472.4,-660.24 482.97,-659.52 474.26,-653.49 472.4,-660.24"/>
</g>
<!-- tl -->
<g id="node13" class="node">
<title>tl</title>
<ellipse fill="none" stroke="black" cx="27.18" cy="-563.24" rx="27" ry="18"/>
<text text-anchor="middle" x="27.18" y="-558.56" font-family="Times,serif" font-size="14.00">tl</text>
</g>
<!-- hl&#45;&gt;tl -->
<g id="edge31" class="edge">
<title>hl&#45;&gt;tl</title>
<path fill="none" stroke="black" d="M200.05,-585.63C165.12,-581.11 104.57,-573.26 65.2,-568.16"/>
<polygon fill="black" stroke="black" points="65.83,-564.71 55.46,-566.9 64.93,-571.66 65.83,-564.71"/>
</g>
<!-- lb -->
<g id="node22" class="node">
<title>lb</title>
<ellipse fill="none" stroke="black" cx="465.96" cy="-712.95" rx="27" ry="18"/>
<text text-anchor="middle" x="465.96" y="-708.27" font-family="Times,serif" font-size="14.00">lb</text>
</g>
<!-- hl&#45;&gt;lb -->
<g id="edge32" class="edge">
<title>hl&#45;&gt;lb</title>
<path fill="none" stroke="black" d="M253.22,-607.64C296.22,-633.19 382.61,-678.13 431.05,-700.26"/>
<polygon fill="black" stroke="black" points="429.41,-703.36 439.97,-704.25 432.27,-696.97 429.41,-703.36"/>
</g>
<!-- fp -->
<g id="node29" class="node">
<title>fp</title>
<ellipse fill="none" stroke="black" cx="180.43" cy="-460.44" rx="27" ry="18"/>
<text text-anchor="middle" x="180.43" y="-455.77" font-family="Times,serif" font-size="14.00">fp</text>
</g>
<!-- hl&#45;&gt;fp -->
<g id="edge33" class="edge">
<title>hl&#45;&gt;fp</title>
<path fill="none" stroke="black" d="M220.74,-570.74C212.9,-549.28 199.86,-513.6 190.74,-488.65"/>
<polygon fill="black" stroke="black" points="194.1,-487.64 187.38,-479.45 187.53,-490.05 194.1,-487.64"/>
</g>
<!-- xx -->
<g id="node35" class="node">
<title>xx</title>
<ellipse fill="none" stroke="black" cx="160.65" cy="-727.97" rx="27" ry="18"/>
<text text-anchor="middle" x="160.65" y="-723.29" font-family="Times,serif" font-size="14.00">xx</text>
</g>
<!-- hl&#45;&gt;xx -->
<g id="edge34" class="edge">
<title>hl&#45;&gt;xx</title>
<path fill="none" stroke="black" d="M218.61,-607.62C207.14,-631.44 187.06,-673.13 173.81,-700.64"/>
<polygon fill="black" stroke="black" points="170.77,-698.88 169.59,-709.41 177.08,-701.92 170.77,-698.88"/>
</g>
<!-- hb -->
<g id="node36" class="node">
<title>hb</title>
<ellipse fill="none" stroke="black" cx="70.91" cy="-694.26" rx="27" ry="18"/>
<text text-anchor="middle" x="70.91" y="-689.58" font-family="Times,serif" font-size="14.00">hb</text>
</g>
<!-- hl&#45;&gt;hb -->
<g id="edge35" class="edge">
<title>hl&#45;&gt;hb</title>
<path fill="none" stroke="black" d="M200.21,-607.49C172,-626.42 128.12,-655.87 99.45,-675.11"/>
<polygon fill="black" stroke="black" points="97.6,-672.13 91.25,-680.61 101.5,-677.94 97.6,-672.13"/>
</g>
<!-- nj -->
<g id="node39" class="node">
<title>nj</title>
<ellipse fill="none" stroke="black" cx="295.55" cy="-708.92" rx="27" ry="18"/>
<text text-anchor="middle" x="295.55" y="-704.24" font-family="Times,serif" font-size="14.00">nj</text>
</g>
<!-- hl&#45;&gt;nj -->
<g id="edge36" class="edge">
<title>hl&#45;&gt;nj</title>
<path fill="none" stroke="black" d="M237.97,-607.63C249.24,-627.45 267.26,-659.15 280.14,-681.81"/>
<polygon fill="black" stroke="black" points="277.09,-683.53 285.07,-690.49 283.17,-680.07 277.09,-683.53"/>
</g>
<!-- tf -->
<g id="node4" class="node">
<title>tf</title>
<polygon fill="none" stroke="black" points="639.88,-1397.46 585.88,-1397.46 585.88,-1361.46 639.88,-1361.46 639.88,-1397.46"/>
<text text-anchor="middle" x="612.88" y="-1374.79" font-family="Times,serif" font-size="14.00">tf</text>
</g>
<!-- fz -->
<g id="node7" class="node">
<title>fz</title>
<polygon fill="none" stroke="black" points="720.4,-1095.35 666.4,-1095.35 666.4,-1059.35 720.4,-1059.35 720.4,-1095.35"/>
<text text-anchor="middle" x="693.4" y="-1072.67" font-family="Times,serif" font-size="14.00">fz</text>
</g>
<!-- tf&#45;&gt;fz -->
<g id="edge46" class="edge">
<title>tf&#45;&gt;fz</title>
<path fill="none" stroke="black" d="M617.8,-1361.02C631.33,-1310.23 669.24,-1168.01 685.65,-1106.41"/>
<polygon fill="black" stroke="black" points="688.96,-1107.57 688.16,-1097.01 682.2,-1105.77 688.96,-1107.57"/>
</g>
<!-- gr -->
<g id="node23" class="node">
<title>gr</title>
<ellipse fill="none" stroke="black" cx="712" cy="-1147.96" rx="27" ry="18"/>
<text text-anchor="middle" x="712" y="-1143.29" font-family="Times,serif" font-size="14.00">gr</text>
</g>
<!-- tf&#45;&gt;gr -->
<g id="edge47" class="edge">
<title>tf&#45;&gt;gr</title>
<path fill="none" stroke="black" d="M624.99,-1361.29C645.93,-1321.27 687.2,-1225.36 704.53,-1176.94"/>
<polygon fill="black" stroke="black" points="707.76,-1178.28 707.72,-1167.69 701.15,-1176 707.76,-1178.28"/>
</g>
<!-- cb -->
<g id="node37" class="node">
<title>cb</title>
<ellipse fill="none" stroke="black" cx="718.61" cy="-1316.82" rx="27" ry="18"/>
<text text-anchor="middle" x="718.61" y="-1312.14" font-family="Times,serif" font-size="14.00">cb</text>
</g>
<!-- tf&#45;&gt;cb -->
<g id="edge48" class="edge">
<title>tf&#45;&gt;cb</title>
<path fill="none" stroke="black" d="M640.11,-1363.33C654.97,-1354.53 673.39,-1343.61 688.65,-1334.57"/>
<polygon fill="black" stroke="black" points="690.03,-1337.82 696.85,-1329.71 686.46,-1331.8 690.03,-1337.82"/>
</g>
<!-- jg -->
<g id="node38" class="node">
<title>jg</title>
<ellipse fill="none" stroke="black" cx="708.75" cy="-1461.84" rx="27" ry="18"/>
<text text-anchor="middle" x="708.75" y="-1457.17" font-family="Times,serif" font-size="14.00">jg</text>
</g>
<!-- tf&#45;&gt;jg -->
<g id="edge49" class="edge">
<title>tf&#45;&gt;jg</title>
<path fill="none" stroke="black" d="M634.16,-1397.75C648.73,-1410.27 668.12,-1426.93 683.48,-1440.13"/>
<polygon fill="black" stroke="black" points="680.98,-1442.59 690.84,-1446.45 685.54,-1437.28 680.98,-1442.59"/>
</g>
<!-- qn -->
<g id="node42" class="node">
<title>qn</title>
<ellipse fill="none" stroke="black" cx="629.12" cy="-1573.98" rx="27" ry="18"/>
<text text-anchor="middle" x="629.12" y="-1569.31" font-family="Times,serif" font-size="14.00">qn</text>
</g>
<!-- tf&#45;&gt;qn -->
<g id="edge50" class="edge">
<title>tf&#45;&gt;qn</title>
<path fill="none" stroke="black" d="M614.41,-1397.76C617.22,-1431.43 623.23,-1503.48 626.64,-1544.26"/>
<polygon fill="black" stroke="black" points="623.14,-1544.41 627.46,-1554.08 630.11,-1543.82 623.14,-1544.41"/>
</g>
<!-- zj -->
<g id="node46" class="node">
<title>zj</title>
<ellipse fill="none" stroke="black" cx="473.68" cy="-1532.87" rx="27" ry="18"/>
<text text-anchor="middle" x="473.68" y="-1528.19" font-family="Times,serif" font-size="14.00">zj</text>
</g>
<!-- tf&#45;&gt;zj -->
<g id="edge51" class="edge">
<title>tf&#45;&gt;zj</title>
<path fill="none" stroke="black" d="M596.37,-1397.66C571.2,-1425.4 523.22,-1478.27 495.3,-1509.04"/>
<polygon fill="black" stroke="black" points="492.81,-1506.58 488.68,-1516.33 497.99,-1511.28 492.81,-1506.58"/>
</g>
<!-- kb -->
<g id="node47" class="node">
<title>kb</title>
<ellipse fill="none" stroke="black" cx="489.16" cy="-1477.28" rx="27" ry="18"/>
<text text-anchor="middle" x="489.16" y="-1472.61" font-family="Times,serif" font-size="14.00">kb</text>
</g>
<!-- tf&#45;&gt;kb -->
<g id="edge52" class="edge">
<title>tf&#45;&gt;kb</title>
<path fill="none" stroke="black" d="M589.61,-1397.86C568.54,-1414.52 537.53,-1439.04 515.54,-1456.42"/>
<polygon fill="black" stroke="black" points="513.59,-1453.5 507.92,-1462.45 517.93,-1458.99 513.59,-1453.5"/>
</g>
<!-- fh -->
<g id="node5" class="node">
<title>fh</title>
<polygon fill="none" stroke="black" points="902.39,-514.33 848.39,-514.33 848.39,-478.33 902.39,-478.33 902.39,-514.33"/>
<text text-anchor="middle" x="875.39" y="-491.65" font-family="Times,serif" font-size="14.00">fh</text>
</g>
<!-- fh&#45;&gt;ql -->
<g id="edge64" class="edge">
<title>fh&#45;&gt;ql</title>
<path fill="none" stroke="black" d="M869.56,-514.75C854.48,-562.34 814.13,-689.72 795.77,-747.67"/>
<polygon fill="black" stroke="black" points="792.45,-746.57 792.77,-757.16 799.12,-748.69 792.45,-746.57"/>
</g>
<!-- mf&#45;&gt;ql -->
<g id="edge73" class="edge">
<title>mf&#45;&gt;ql</title>
<path fill="none" stroke="black" d="M538.89,-678.3C588.29,-698.01 692.45,-739.58 748.63,-762"/>
<polygon fill="black" stroke="black" points="747.21,-765.2 757.79,-765.66 749.8,-758.7 747.21,-765.2"/>
</g>
<!-- fz&#45;&gt;ql -->
<g id="edge75" class="edge">
<title>fz&#45;&gt;ql</title>
<path fill="none" stroke="black" d="M699.08,-1059.02C714.69,-1008.66 758.32,-867.87 777.36,-806.41"/>
<polygon fill="black" stroke="black" points="780.66,-807.6 780.28,-797.01 773.98,-805.53 780.66,-807.6"/>
</g>
<!-- ss&#45;&gt;ql -->
<g id="edge95" class="edge">
<title>ss&#45;&gt;ql</title>
<path fill="none" stroke="black" d="M1053.67,-870.1C1000.81,-851.7 884.81,-811.33 824.53,-790.35"/>
<polygon fill="black" stroke="black" points="825.97,-787.14 815.38,-787.16 823.67,-793.75 825.97,-787.14"/>
</g>
<!-- sn -->
<g id="node9" class="node">
<title>sn</title>
<polygon fill="none" stroke="black" points="1037.15,-243.96 983.15,-243.96 983.15,-207.96 1037.15,-207.96 1037.15,-243.96"/>
<text text-anchor="middle" x="1010.15" y="-221.28" font-family="Times,serif" font-size="14.00">sn</text>
</g>
<!-- sn&#45;&gt;fh -->
<g id="edge97" class="edge">
<title>sn&#45;&gt;fh</title>
<path fill="none" stroke="black" d="M1001.1,-244.12C978.14,-290.18 917.49,-411.87 889.68,-467.65"/>
<polygon fill="black" stroke="black" points="886.58,-466.02 885.26,-476.54 892.85,-469.15 886.58,-466.02"/>
</g>
<!-- ng -->
<g id="node21" class="node">
<title>ng</title>
<ellipse fill="none" stroke="black" cx="938.43" cy="-484.4" rx="27" ry="18"/>
<text text-anchor="middle" x="938.43" y="-479.73" font-family="Times,serif" font-size="14.00">ng</text>
</g>
<!-- sn&#45;&gt;ng -->
<g id="edge98" class="edge">
<title>sn&#45;&gt;ng</title>
<path fill="none" stroke="black" d="M1001.12,-244.38C984.95,-288.67 953.45,-401.37 942,-455.08"/>
<polygon fill="black" stroke="black" points="938.6,-454.23 940.06,-464.72 945.47,-455.61 938.6,-454.23"/>
</g>
<!-- qb -->
<g id="node49" class="node">
<title>qb</title>
<ellipse fill="none" stroke="black" cx="947.8" cy="-36.72" rx="27" ry="18"/>
<text text-anchor="middle" x="947.8" y="-32.05" font-family="Times,serif" font-size="14.00">qb</text>
</g>
<!-- sn&#45;&gt;qb -->
<g id="edge99" class="edge">
<title>sn&#45;&gt;qb</title>
<path fill="none" stroke="black" d="M1004.06,-207.47C993.15,-174.37 970.23,-104.8 957.26,-65.44"/>
<polygon fill="black" stroke="black" points="960.66,-64.57 954.2,-56.17 954.01,-66.76 960.66,-64.57"/>
</g>
<!-- nc -->
<g id="node50" class="node">
<title>nc</title>
<ellipse fill="none" stroke="black" cx="1039.57" cy="-18.46" rx="27" ry="18"/>
<text text-anchor="middle" x="1039.57" y="-13.79" font-family="Times,serif" font-size="14.00">nc</text>
</g>
<!-- sn&#45;&gt;nc -->
<g id="edge100" class="edge">
<title>sn&#45;&gt;nc</title>
<path fill="none" stroke="black" d="M1012.76,-207.55C1017.86,-171.55 1029.2,-91.6 1035.37,-48.08"/>
<polygon fill="black" stroke="black" points="1038.81,-48.73 1036.75,-38.33 1031.88,-47.74 1038.81,-48.73"/>
</g>
<!-- th -->
<g id="node53" class="node">
<title>th</title>
<ellipse fill="none" stroke="black" cx="896.14" cy="-85.04" rx="27" ry="18"/>
<text text-anchor="middle" x="896.14" y="-80.37" font-family="Times,serif" font-size="14.00">th</text>
</g>
<!-- sn&#45;&gt;th -->
<g id="edge101" class="edge">
<title>sn&#45;&gt;th</title>
<path fill="none" stroke="black" d="M995.25,-207.54C975.07,-182.6 939.01,-138.02 916.4,-110.07"/>
<polygon fill="black" stroke="black" points="919.25,-108.03 910.24,-102.46 913.81,-112.44 919.25,-108.03"/>
</g>
<!-- nl -->
<g id="node58" class="node">
<title>nl</title>
<ellipse fill="none" stroke="black" cx="1086.72" cy="-63.69" rx="27" ry="18"/>
<text text-anchor="middle" x="1086.72" y="-59.02" font-family="Times,serif" font-size="14.00">nl</text>
</g>
<!-- sn&#45;&gt;nl -->
<g id="edge102" class="edge">
<title>sn&#45;&gt;nl</title>
<path fill="none" stroke="black" d="M1018.79,-207.66C1032.14,-179.36 1057.89,-124.79 1073.57,-91.57"/>
<polygon fill="black" stroke="black" points="1076.72,-93.09 1077.82,-82.55 1070.39,-90.1 1076.72,-93.09"/>
</g>
<!-- sd -->
<g id="node59" class="node">
<title>sd</title>
<ellipse fill="none" stroke="black" cx="1011.97" cy="-64.49" rx="27" ry="18"/>
<text text-anchor="middle" x="1011.97" y="-59.82" font-family="Times,serif" font-size="14.00">sd</text>
</g>
<!-- sn&#45;&gt;sd -->
<g id="edge103" class="edge">
<title>sn&#45;&gt;sd</title>
<path fill="none" stroke="black" d="M1010.36,-207.75C1010.67,-180.13 1011.26,-127.36 1011.63,-94.15"/>
<polygon fill="black" stroke="black" points="1015.13,-94.43 1011.74,-84.4 1008.13,-94.36 1015.13,-94.43"/>
</g>
<!-- fl -->
<g id="node10" class="node">
<title>fl</title>
<ellipse fill="none" stroke="black" cx="691.43" cy="-1564.29" rx="27" ry="18"/>
<text text-anchor="middle" x="691.43" y="-1559.62" font-family="Times,serif" font-size="14.00">fl</text>
</g>
<!-- fl&#45;&gt;tf -->
<g id="edge1" class="edge">
<title>fl&#45;&gt;tf</title>
<path fill="none" stroke="black" d="M683.9,-1546.57C670.34,-1514.66 641.7,-1447.27 625.23,-1408.53"/>
<polygon fill="black" stroke="black" points="628.47,-1407.18 621.33,-1399.35 622.02,-1409.92 628.47,-1407.18"/>
</g>
<!-- gz -->
<g id="node11" class="node">
<title>gz</title>
<ellipse fill="none" stroke="black" cx="743.13" cy="-1519.02" rx="27" ry="18"/>
<text text-anchor="middle" x="743.13" y="-1514.34" font-family="Times,serif" font-size="14.00">gz</text>
</g>
<!-- fl&#45;&gt;gz -->
<g id="edge2" class="edge">
<title>fl&#45;&gt;gz</title>
<path fill="none" stroke="black" d="M708.07,-1549.72C711.21,-1546.97 714.56,-1544.04 717.89,-1541.13"/>
<polygon fill="black" stroke="black" points="720.16,-1543.78 725.38,-1534.56 715.55,-1538.52 720.16,-1543.78"/>
</g>
<!-- gz&#45;&gt;tf -->
<g id="edge44" class="edge">
<title>gz&#45;&gt;tf</title>
<path fill="none" stroke="black" d="M728.69,-1503.55C706.72,-1480.01 664.62,-1434.89 637.68,-1406.04"/>
<polygon fill="black" stroke="black" points="640.26,-1403.67 630.88,-1398.75 635.15,-1408.45 640.26,-1403.67"/>
</g>
<!-- xb -->
<g id="node12" class="node">
<title>xb</title>
<ellipse fill="none" stroke="black" cx="97.71" cy="-463.53" rx="27" ry="18"/>
<text text-anchor="middle" x="97.71" y="-458.86" font-family="Times,serif" font-size="14.00">xb</text>
</g>
<!-- xb&#45;&gt;hl -->
<g id="edge3" class="edge">
<title>xb&#45;&gt;hl</title>
<path fill="none" stroke="black" d="M113.36,-478.69C134.9,-499.54 173.98,-537.38 200.34,-562.9"/>
<polygon fill="black" stroke="black" points="197.7,-565.22 207.32,-569.66 202.57,-560.19 197.7,-565.22"/>
</g>
<!-- xb&#45;&gt;tl -->
<g id="edge4" class="edge">
<title>xb&#45;&gt;tl</title>
<path fill="none" stroke="black" d="M86.06,-480C74.93,-495.73 58,-519.67 45.14,-537.84"/>
<polygon fill="black" stroke="black" points="42.63,-535.33 39.72,-545.51 48.35,-539.37 42.63,-535.33"/>
</g>
<!-- kg -->
<g id="node51" class="node">
<title>kg</title>
<ellipse fill="none" stroke="black" cx="35.68" cy="-494.96" rx="27" ry="18"/>
<text text-anchor="middle" x="35.68" y="-490.29" font-family="Times,serif" font-size="14.00">kg</text>
</g>
<!-- tl&#45;&gt;kg -->
<g id="edge60" class="edge">
<title>tl&#45;&gt;kg</title>
<path fill="none" stroke="black" d="M29.46,-544.94C30.24,-538.66 31.13,-531.47 32,-524.53"/>
<polygon fill="black" stroke="black" points="35.45,-525.17 33.21,-514.81 28.5,-524.3 35.45,-525.17"/>
</g>
<!-- mq -->
<g id="node14" class="node">
<title>mq</title>
<ellipse fill="none" stroke="black" cx="581.57" cy="-1527.71" rx="27.01" ry="18"/>
<text text-anchor="middle" x="581.57" y="-1523.03" font-family="Times,serif" font-size="14.00">mq</text>
</g>
<!-- mq&#45;&gt;tf -->
<g id="edge5" class="edge">
<title>mq&#45;&gt;tf</title>
<path fill="none" stroke="black" d="M585.41,-1509.53C590.72,-1484.41 600.35,-1438.8 606.68,-1408.82"/>
<polygon fill="black" stroke="black" points="610.06,-1409.78 608.7,-1399.27 603.21,-1408.33 610.06,-1409.78"/>
</g>
<!-- mq&#45;&gt;fl -->
<g id="edge6" class="edge">
<title>mq&#45;&gt;fl</title>
<path fill="none" stroke="black" d="M605.96,-1535.83C620.75,-1540.75 639.87,-1547.12 656.28,-1552.59"/>
<polygon fill="black" stroke="black" points="655.09,-1555.88 665.68,-1555.72 657.3,-1549.24 655.09,-1555.88"/>
</g>
<!-- px -->
<g id="node15" class="node">
<title>px</title>
<ellipse fill="none" stroke="black" cx="120.01" cy="-414.73" rx="27" ry="18"/>
<text text-anchor="middle" x="120.01" y="-410.06" font-family="Times,serif" font-size="14.00">px</text>
</g>
<!-- px&#45;&gt;hl -->
<g id="edge7" class="edge">
<title>px&#45;&gt;hl</title>
<path fill="none" stroke="black" d="M130.51,-431.78C149.05,-461.87 187.75,-524.68 210.25,-561.21"/>
<polygon fill="black" stroke="black" points="207.12,-562.8 215.34,-569.48 213.08,-559.13 207.12,-562.8"/>
</g>
<!-- tm -->
<g id="node16" class="node">
<title>tm</title>
<ellipse fill="none" stroke="black" cx="221.88" cy="-403.71" rx="27" ry="18"/>
<text text-anchor="middle" x="221.88" y="-399.03" font-family="Times,serif" font-size="14.00">tm</text>
</g>
<!-- px&#45;&gt;tm -->
<g id="edge8" class="edge">
<title>px&#45;&gt;tm</title>
<path fill="none" stroke="black" d="M147.04,-411.81C158.3,-410.59 171.57,-409.15 183.79,-407.83"/>
<polygon fill="black" stroke="black" points="184,-411.33 193.57,-406.77 183.25,-404.37 184,-411.33"/>
</g>
<!-- tm&#45;&gt;hl -->
<g id="edge74" class="edge">
<title>tm&#45;&gt;hl</title>
<path fill="none" stroke="black" d="M222.44,-422.17C223.41,-454.32 225.42,-520.84 226.59,-559.53"/>
<polygon fill="black" stroke="black" points="223.08,-559.4 226.88,-569.29 230.08,-559.19 223.08,-559.4"/>
</g>
<!-- xv -->
<g id="node18" class="node">
<title>xv</title>
<ellipse fill="none" stroke="black" cx="1424.89" cy="-1170.25" rx="27" ry="18"/>
<text text-anchor="middle" x="1424.89" y="-1165.57" font-family="Times,serif" font-size="14.00">xv</text>
</g>
<!-- dp&#45;&gt;xv -->
<g id="edge9" class="edge">
<title>dp&#45;&gt;xv</title>
<path fill="none" stroke="black" d="M1362.14,-1149.06C1370.65,-1151.93 1380.38,-1155.22 1389.61,-1158.34"/>
<polygon fill="black" stroke="black" points="1388.46,-1161.64 1399.06,-1161.53 1390.7,-1155.01 1388.46,-1161.64"/>
</g>
<!-- xv&#45;&gt;lr -->
<g id="edge89" class="edge">
<title>xv&#45;&gt;lr</title>
<path fill="none" stroke="black" d="M1419.45,-1152.41C1409.99,-1121.43 1390.46,-1057.44 1379.03,-1020.01"/>
<polygon fill="black" stroke="black" points="1382.47,-1019.3 1376.21,-1010.76 1375.78,-1021.35 1382.47,-1019.3"/>
</g>
<!-- xv&#45;&gt;rm -->
<g id="edge90" class="edge">
<title>xv&#45;&gt;rm</title>
<path fill="none" stroke="black" d="M1450.32,-1163.75C1452.77,-1163.12 1455.29,-1162.48 1457.82,-1161.83"/>
<polygon fill="black" stroke="black" points="1458.53,-1165.26 1467.35,-1159.4 1456.8,-1158.48 1458.53,-1165.26"/>
</g>
<!-- broadcaster -->
<g id="node19" class="node">
<title>broadcaster</title>
<ellipse fill="none" stroke="black" cx="810.2" cy="-821.69" rx="71.2" ry="18"/>
<text text-anchor="middle" x="810.2" y="-817.02" font-family="Times,serif" font-size="14.00">broadcaster</text>
</g>
<!-- broadcaster&#45;&gt;js -->
<g id="edge10" class="edge">
<title>broadcaster&#45;&gt;js</title>
<path fill="none" stroke="black" d="M851.88,-836.72C914.93,-859.45 1033.4,-902.15 1091.97,-923.26"/>
<polygon fill="black" stroke="black" points="1090.5,-926.45 1101.1,-926.55 1092.88,-919.87 1090.5,-926.45"/>
</g>
<!-- broadcaster&#45;&gt;ng -->
<g id="edge11" class="edge">
<title>broadcaster&#45;&gt;ng</title>
<path fill="none" stroke="black" d="M817.09,-803.56C838.19,-748.07 901.99,-580.25 927.61,-512.86"/>
<polygon fill="black" stroke="black" points="930.84,-514.22 931.12,-503.63 924.3,-511.74 930.84,-514.22"/>
</g>
<!-- broadcaster&#45;&gt;lb -->
<g id="edge12" class="edge">
<title>broadcaster&#45;&gt;lb</title>
<path fill="none" stroke="black" d="M765.19,-807.48C695.88,-785.58 564.43,-744.05 501.4,-724.14"/>
<polygon fill="black" stroke="black" points="502.49,-720.82 491.9,-721.14 500.38,-727.49 502.49,-720.82"/>
</g>
<!-- broadcaster&#45;&gt;gr -->
<g id="edge13" class="edge">
<title>broadcaster&#45;&gt;gr</title>
<path fill="none" stroke="black" d="M804.78,-839.7C788.58,-893.51 740.44,-1053.46 720.65,-1119.23"/>
<polygon fill="black" stroke="black" points="717.37,-1117.98 717.84,-1128.56 724.07,-1120 717.37,-1117.98"/>
</g>
<!-- js&#45;&gt;lr -->
<g id="edge54" class="edge">
<title>js&#45;&gt;lr</title>
<path fill="none" stroke="black" d="M1149.88,-945.37C1191.85,-958.03 1280.5,-978.41 1331.63,-987.42"/>
<polygon fill="black" stroke="black" points="1330.92,-990.85 1341.36,-989.06 1332.08,-983.95 1330.92,-990.85"/>
</g>
<!-- js&#45;&gt;dc -->
<g id="edge55" class="edge">
<title>js&#45;&gt;dc</title>
<path fill="none" stroke="black" d="M1143.2,-950.13C1164.06,-968.2 1200.05,-999.36 1224.39,-1020.44"/>
<polygon fill="black" stroke="black" points="1222.1,-1023.08 1231.95,-1026.99 1226.68,-1017.79 1222.1,-1023.08"/>
</g>
<!-- ng&#45;&gt;sn -->
<g id="edge78" class="edge">
<title>ng&#45;&gt;sn</title>
<path fill="none" stroke="black" d="M947.01,-467.21C963.01,-423.91 994.88,-310.02 1006.5,-255.65"/>
<polygon fill="black" stroke="black" points="1009.93,-256.37 1008.48,-245.88 1003.07,-254.99 1009.93,-256.37"/>
</g>
<!-- vp -->
<g id="node27" class="node">
<title>vp</title>
<ellipse fill="none" stroke="black" cx="924.44" cy="-317.2" rx="27" ry="18"/>
<text text-anchor="middle" x="924.44" y="-312.52" font-family="Times,serif" font-size="14.00">vp</text>
</g>
<!-- ng&#45;&gt;vp -->
<g id="edge79" class="edge">
<title>ng&#45;&gt;vp</title>
<path fill="none" stroke="black" d="M936.91,-466.19C934.51,-437.5 929.82,-381.47 926.92,-346.9"/>
<polygon fill="black" stroke="black" points="930.43,-346.82 926.11,-337.15 923.45,-347.41 930.43,-346.82"/>
</g>
<!-- lb&#45;&gt;hl -->
<g id="edge105" class="edge">
<title>lb&#45;&gt;hl</title>
<path fill="none" stroke="black" d="M447.86,-699.1C409.06,-675.19 317.4,-627.23 265.32,-603.22"/>
<polygon fill="black" stroke="black" points="266.77,-600.03 256.21,-599.1 263.88,-606.41 266.77,-600.03"/>
</g>
<!-- lb&#45;&gt;nj -->
<g id="edge106" class="edge">
<title>lb&#45;&gt;nj</title>
<path fill="none" stroke="black" d="M438.58,-712.3C410.26,-711.63 365.79,-710.58 333.96,-709.83"/>
<polygon fill="black" stroke="black" points="334.45,-706.34 324.37,-709.6 334.29,-713.33 334.45,-706.34"/>
</g>
<!-- gr&#45;&gt;tf -->
<g id="edge107" class="edge">
<title>gr&#45;&gt;tf</title>
<path fill="none" stroke="black" d="M700.69,-1164.62C680.03,-1203.65 637.98,-1301.28 620.4,-1350.36"/>
<polygon fill="black" stroke="black" points="617.11,-1349.15 617.16,-1359.75 623.73,-1351.44 617.11,-1349.15"/>
</g>
<!-- gr&#45;&gt;cb -->
<g id="edge108" class="edge">
<title>gr&#45;&gt;cb</title>
<path fill="none" stroke="black" d="M712.72,-1166.35C713.85,-1195.41 716.08,-1252.2 717.44,-1287.1"/>
<polygon fill="black" stroke="black" points="713.94,-1287.08 717.83,-1296.94 720.93,-1286.81 713.94,-1287.08"/>
</g>
<!-- hm -->
<g id="node26" class="node">
<title>hm</title>
<ellipse fill="none" stroke="black" cx="1563.05" cy="-973.48" rx="27.01" ry="18"/>
<text text-anchor="middle" x="1563.05" y="-968.81" font-family="Times,serif" font-size="14.00">hm</text>
</g>
<!-- gk&#45;&gt;hm -->
<g id="edge15" class="edge">
<title>gk&#45;&gt;hm</title>
<path fill="none" stroke="black" d="M1563.54,-1010.32C1563.51,-1007.97 1563.47,-1005.52 1563.44,-1003.04"/>
<polygon fill="black" stroke="black" points="1566.94,-1003.07 1563.31,-993.12 1559.94,-1003.17 1566.94,-1003.07"/>
</g>
<!-- hm&#45;&gt;lr -->
<g id="edge62" class="edge">
<title>hm&#45;&gt;lr</title>
<path fill="none" stroke="black" d="M1535.82,-975.96C1502.6,-978.97 1446.23,-984.1 1408.6,-987.52"/>
<polygon fill="black" stroke="black" points="1408.72,-983.99 1399.08,-988.38 1409.36,-990.96 1408.72,-983.99"/>
</g>
<!-- rd -->
<g id="node52" class="node">
<title>rd</title>
<ellipse fill="none" stroke="black" cx="1488.56" cy="-905.07" rx="27" ry="18"/>
<text text-anchor="middle" x="1488.56" y="-900.39" font-family="Times,serif" font-size="14.00">rd</text>
</g>
<!-- hm&#45;&gt;rd -->
<g id="edge63" class="edge">
<title>hm&#45;&gt;rd</title>
<path fill="none" stroke="black" d="M1546.88,-958.64C1537.03,-949.58 1524.23,-937.83 1513.14,-927.64"/>
<polygon fill="black" stroke="black" points="1515.54,-925.09 1505.81,-920.91 1510.81,-930.25 1515.54,-925.09"/>
</g>
<!-- vp&#45;&gt;sn -->
<g id="edge16" class="edge">
<title>vp&#45;&gt;sn</title>
<path fill="none" stroke="black" d="M938.98,-301.72C951.67,-288.21 970.35,-268.32 985.39,-252.31"/>
<polygon fill="black" stroke="black" points="987.54,-255.14 991.84,-245.45 982.44,-250.34 987.54,-255.14"/>
</g>
<!-- vf -->
<g id="node28" class="node">
<title>vf</title>
<ellipse fill="none" stroke="black" cx="878.48" cy="-180.71" rx="27" ry="18"/>
<text text-anchor="middle" x="878.48" y="-176.04" font-family="Times,serif" font-size="14.00">vf</text>
</g>
<!-- vp&#45;&gt;vf -->
<g id="edge17" class="edge">
<title>vp&#45;&gt;vf</title>
<path fill="none" stroke="black" d="M918.43,-299.35C910.72,-276.47 897.26,-236.49 888.12,-209.33"/>
<polygon fill="black" stroke="black" points="891.48,-208.35 884.97,-199.99 884.85,-210.59 891.48,-208.35"/>
</g>
<!-- vf&#45;&gt;sn -->
<g id="edge71" class="edge">
<title>vf&#45;&gt;sn</title>
<path fill="none" stroke="black" d="M902.94,-189.12C922.41,-195.81 949.99,-205.29 972.31,-212.96"/>
<polygon fill="black" stroke="black" points="971.08,-216.23 981.67,-216.17 973.35,-209.61 971.08,-216.23"/>
</g>
<!-- vf&#45;&gt;th -->
<g id="edge72" class="edge">
<title>vf&#45;&gt;th</title>
<path fill="none" stroke="black" d="M881.8,-162.72C884.3,-149.17 887.79,-130.32 890.69,-114.57"/>
<polygon fill="black" stroke="black" points="894.13,-115.24 892.5,-104.77 887.24,-113.97 894.13,-115.24"/>
</g>
<!-- fp&#45;&gt;xb -->
<g id="edge18" class="edge">
<title>fp&#45;&gt;xb</title>
<path fill="none" stroke="black" d="M153.35,-461.46C147.97,-461.66 142.24,-461.87 136.56,-462.08"/>
<polygon fill="black" stroke="black" points="136.51,-458.58 126.65,-462.45 136.78,-465.58 136.51,-458.58"/>
</g>
<!-- hj -->
<g id="node45" class="node">
<title>hj</title>
<ellipse fill="none" stroke="black" cx="1553.03" cy="-1089.88" rx="27" ry="18"/>
<text text-anchor="middle" x="1553.03" y="-1085.21" font-family="Times,serif" font-size="14.00">hj</text>
</g>
<!-- rm&#45;&gt;hj -->
<g id="edge45" class="edge">
<title>rm&#45;&gt;hj</title>
<path fill="none" stroke="black" d="M1508.78,-1137.04C1515.47,-1129.91 1523.56,-1121.29 1530.97,-1113.39"/>
<polygon fill="black" stroke="black" points="1533.34,-1115.98 1537.63,-1106.29 1528.24,-1111.19 1533.34,-1115.98"/>
</g>
<!-- dc&#45;&gt;dp -->
<g id="edge70" class="edge">
<title>dc&#45;&gt;dp</title>
<path fill="none" stroke="black" d="M1264,-1058.3C1278.12,-1074.08 1300.01,-1098.53 1316.31,-1116.74"/>
<polygon fill="black" stroke="black" points="1313.51,-1118.87 1322.79,-1123.99 1318.73,-1114.2 1313.51,-1118.87"/>
</g>
<!-- bq&#45;&gt;gk -->
<g id="edge39" class="edge">
<title>bq&#45;&gt;gk</title>
<path fill="none" stroke="black" d="M1508,-1074.73C1516.93,-1067.37 1527.98,-1058.25 1537.9,-1050.07"/>
<polygon fill="black" stroke="black" points="1539.93,-1052.93 1545.41,-1043.87 1535.47,-1047.53 1539.93,-1052.93"/>
</g>
<!-- xl -->
<g id="node33" class="node">
<title>xl</title>
<ellipse fill="none" stroke="black" cx="1477.28" cy="-844.62" rx="27" ry="18"/>
<text text-anchor="middle" x="1477.28" y="-839.94" font-family="Times,serif" font-size="14.00">xl</text>
</g>
<!-- xl&#45;&gt;lr -->
<g id="edge26" class="edge">
<title>xl&#45;&gt;lr</title>
<path fill="none" stroke="black" d="M1465.2,-861.13C1446.94,-886.09 1412.09,-933.73 1390.05,-963.85"/>
<polygon fill="black" stroke="black" points="1387.35,-961.6 1384.27,-971.74 1393,-965.74 1387.35,-961.6"/>
</g>
<!-- gx -->
<g id="node34" class="node">
<title>gx</title>
<ellipse fill="none" stroke="black" cx="1553.05" cy="-909.62" rx="27" ry="18"/>
<text text-anchor="middle" x="1553.05" y="-904.95" font-family="Times,serif" font-size="14.00">gx</text>
</g>
<!-- xl&#45;&gt;gx -->
<g id="edge27" class="edge">
<title>xl&#45;&gt;gx</title>
<path fill="none" stroke="black" d="M1494.1,-859.04C1504,-867.54 1516.73,-878.46 1527.82,-887.98"/>
<polygon fill="black" stroke="black" points="1525.26,-890.39 1535.13,-894.25 1529.82,-885.08 1525.26,-890.39"/>
</g>
<!-- gx&#45;&gt;lr -->
<g id="edge61" class="edge">
<title>gx&#45;&gt;lr</title>
<path fill="none" stroke="black" d="M1530.26,-919.76C1499.58,-933.42 1444.62,-957.88 1407.77,-974.28"/>
<polygon fill="black" stroke="black" points="1406.53,-971 1398.81,-978.26 1409.37,-977.4 1406.53,-971"/>
</g>
<!-- xx&#45;&gt;hb -->
<g id="edge28" class="edge">
<title>xx&#45;&gt;hb</title>
<path fill="none" stroke="black" d="M137.07,-719.11C127.36,-715.46 115.91,-711.16 105.29,-707.18"/>
<polygon fill="black" stroke="black" points="106.65,-703.95 96.06,-703.71 104.19,-710.5 106.65,-703.95"/>
</g>
<!-- qk -->
<g id="node43" class="node">
<title>qk</title>
<ellipse fill="none" stroke="black" cx="38.5" cy="-632.06" rx="27" ry="18"/>
<text text-anchor="middle" x="38.5" y="-627.39" font-family="Times,serif" font-size="14.00">qk</text>
</g>
<!-- hb&#45;&gt;qk -->
<g id="edge41" class="edge">
<title>hb&#45;&gt;qk</title>
<path fill="none" stroke="black" d="M61.88,-676.93C59,-671.41 55.74,-665.15 52.59,-659.11"/>
<polygon fill="black" stroke="black" points="55.9,-657.89 48.18,-650.64 49.69,-661.12 55.9,-657.89"/>
</g>
<!-- cb&#45;&gt;jg -->
<g id="edge29" class="edge">
<title>cb&#45;&gt;jg</title>
<path fill="none" stroke="black" d="M717.36,-1335.18C715.69,-1359.7 712.72,-1403.41 710.75,-1432.51"/>
<polygon fill="black" stroke="black" points="707.28,-1431.9 710.09,-1442.11 714.26,-1432.37 707.28,-1431.9"/>
</g>
<!-- jg&#45;&gt;qn -->
<g id="edge40" class="edge">
<title>jg&#45;&gt;qn</title>
<path fill="none" stroke="black" d="M697,-1478.39C683.95,-1496.77 662.7,-1526.7 647.45,-1548.17"/>
<polygon fill="black" stroke="black" points="644.73,-1545.95 641.79,-1556.13 650.44,-1550.01 644.73,-1545.95"/>
</g>
<!-- nj&#45;&gt;xx -->
<g id="edge65" class="edge">
<title>nj&#45;&gt;xx</title>
<path fill="none" stroke="black" d="M268.89,-712.68C248.76,-715.53 220.84,-719.47 198.41,-722.64"/>
<polygon fill="black" stroke="black" points="198.15,-719.14 188.74,-724 199.13,-726.07 198.15,-719.14"/>
</g>
<!-- vr -->
<g id="node40" class="node">
<title>vr</title>
<ellipse fill="none" stroke="black" cx="426.83" cy="-1447.7" rx="27" ry="18"/>
<text text-anchor="middle" x="426.83" y="-1443.03" font-family="Times,serif" font-size="14.00">vr</text>
</g>
<!-- vr&#45;&gt;tf -->
<g id="edge37" class="edge">
<title>vr&#45;&gt;tf</title>
<path fill="none" stroke="black" d="M450.77,-1438.92C482.21,-1427.39 537.78,-1407.01 574.97,-1393.37"/>
<polygon fill="black" stroke="black" points="575.8,-1396.79 583.98,-1390.06 573.39,-1390.22 575.8,-1396.79"/>
</g>
<!-- hq -->
<g id="node41" class="node">
<title>hq</title>
<ellipse fill="none" stroke="black" cx="441.27" cy="-1379.48" rx="27" ry="18"/>
<text text-anchor="middle" x="441.27" y="-1374.81" font-family="Times,serif" font-size="14.00">hq</text>
</g>
<!-- vr&#45;&gt;hq -->
<g id="edge38" class="edge">
<title>vr&#45;&gt;hq</title>
<path fill="none" stroke="black" d="M430.7,-1429.42C432.06,-1422.97 433.64,-1415.55 435.14,-1408.44"/>
<polygon fill="black" stroke="black" points="438.53,-1409.33 437.18,-1398.82 431.68,-1407.88 438.53,-1409.33"/>
</g>
<!-- hq&#45;&gt;tf -->
<g id="edge66" class="edge">
<title>hq&#45;&gt;tf</title>
<path fill="none" stroke="black" d="M468.46,-1379.48C497,-1379.48 542.1,-1379.47 574.31,-1379.47"/>
<polygon fill="black" stroke="black" points="574.02,-1382.97 584.02,-1379.47 574.02,-1375.97 574.02,-1382.97"/>
</g>
<!-- hq&#45;&gt;kb -->
<g id="edge67" class="edge">
<title>hq&#45;&gt;kb</title>
<path fill="none" stroke="black" d="M449.83,-1396.97C457.05,-1411.71 467.5,-1433.05 475.82,-1450.04"/>
<polygon fill="black" stroke="black" points="472.46,-1451.15 480.01,-1458.59 478.75,-1448.07 472.46,-1451.15"/>
</g>
<!-- td -->
<g id="node48" class="node">
<title>td</title>
<ellipse fill="none" stroke="black" cx="537.81" cy="-1574.16" rx="27" ry="18"/>
<text text-anchor="middle" x="537.81" y="-1569.48" font-family="Times,serif" font-size="14.00">td</text>
</g>
<!-- qn&#45;&gt;td -->
<g id="edge53" class="edge">
<title>qn&#45;&gt;td</title>
<path fill="none" stroke="black" d="M601.72,-1574.04C593.78,-1574.05 584.95,-1574.07 576.45,-1574.08"/>
<polygon fill="black" stroke="black" points="576.69,-1570.58 566.7,-1574.1 576.7,-1577.58 576.69,-1570.58"/>
</g>
<!-- qk&#45;&gt;hl -->
<g id="edge42" class="edge">
<title>qk&#45;&gt;hl</title>
<path fill="none" stroke="black" d="M64.38,-626.19C96.63,-618.88 152.01,-606.31 189.18,-597.88"/>
<polygon fill="black" stroke="black" points="189.63,-601.37 198.61,-595.74 188.08,-594.54 189.63,-601.37"/>
</g>
<!-- hs -->
<g id="node44" class="node">
<title>hs</title>
<ellipse fill="none" stroke="black" cx="91.85" cy="-541.43" rx="27" ry="18"/>
<text text-anchor="middle" x="91.85" y="-536.76" font-family="Times,serif" font-size="14.00">hs</text>
</g>
<!-- qk&#45;&gt;hs -->
<g id="edge43" class="edge">
<title>qk&#45;&gt;hs</title>
<path fill="none" stroke="black" d="M48.53,-615.02C56.29,-601.85 67.16,-583.39 76.07,-568.25"/>
<polygon fill="black" stroke="black" points="79.04,-570.1 81.09,-559.71 73.01,-566.55 79.04,-570.1"/>
</g>
<!-- hs&#45;&gt;hl -->
<g id="edge87" class="edge">
<title>hs&#45;&gt;hl</title>
<path fill="none" stroke="black" d="M116.1,-549.97C136.49,-557.15 166,-567.54 189.52,-575.82"/>
<polygon fill="black" stroke="black" points="188.16,-579.05 198.76,-579.07 190.49,-572.45 188.16,-579.05"/>
</g>
<!-- hs&#45;&gt;fp -->
<g id="edge88" class="edge">
<title>hs&#45;&gt;fp</title>
<path fill="none" stroke="black" d="M108.1,-526.58C121.46,-514.36 140.61,-496.86 155.84,-482.93"/>
<polygon fill="black" stroke="black" points="158.15,-485.56 163.17,-476.23 153.43,-480.39 158.15,-485.56"/>
</g>
<!-- hj&#45;&gt;lr -->
<g id="edge93" class="edge">
<title>hj&#45;&gt;lr</title>
<path fill="none" stroke="black" d="M1531.7,-1078.35C1501.3,-1061.91 1445.07,-1031.5 1407.63,-1011.26"/>
<polygon fill="black" stroke="black" points="1409.4,-1008.24 1398.94,-1006.56 1406.07,-1014.4 1409.4,-1008.24"/>
</g>
<!-- hj&#45;&gt;bq -->
<g id="edge94" class="edge">
<title>hj&#45;&gt;bq</title>
<path fill="none" stroke="black" d="M1525.86,-1089.51C1525.7,-1089.5 1525.53,-1089.5 1525.37,-1089.5"/>
<polygon fill="black" stroke="black" points="1529.51,-1086.06 1519.46,-1089.42 1529.41,-1093.06 1529.51,-1086.06"/>
</g>
<!-- zj&#45;&gt;vr -->
<g id="edge57" class="edge">
<title>zj&#45;&gt;vr</title>
<path fill="none" stroke="black" d="M464.2,-1515.63C457.78,-1503.97 449.18,-1488.33 441.84,-1474.99"/>
<polygon fill="black" stroke="black" points="444.91,-1473.31 437.02,-1466.24 438.78,-1476.69 444.91,-1473.31"/>
</g>
<!-- kb&#45;&gt;mq -->
<g id="edge104" class="edge">
<title>kb&#45;&gt;mq</title>
<path fill="none" stroke="black" d="M510.13,-1488.72C522.1,-1495.25 537.32,-1503.56 550.64,-1510.83"/>
<polygon fill="black" stroke="black" points="548.58,-1513.69 559.04,-1515.41 551.94,-1507.55 548.58,-1513.69"/>
</g>
<!-- td&#45;&gt;tf -->
<g id="edge58" class="edge">
<title>td&#45;&gt;tf</title>
<path fill="none" stroke="black" d="M544.6,-1556.54C557.57,-1522.91 585.95,-1449.3 601.74,-1408.37"/>
<polygon fill="black" stroke="black" points="604.95,-1409.76 605.29,-1399.17 598.42,-1407.24 604.95,-1409.76"/>
</g>
<!-- td&#45;&gt;zj -->
<g id="edge59" class="edge">
<title>td&#45;&gt;zj</title>
<path fill="none" stroke="black" d="M518.22,-1561.55C513.24,-1558.34 507.8,-1554.84 502.47,-1551.41"/>
<polygon fill="black" stroke="black" points="504.72,-1548.69 494.42,-1546.22 500.93,-1554.58 504.72,-1548.69"/>
</g>
<!-- qb&#45;&gt;nc -->
<g id="edge56" class="edge">
<title>qb&#45;&gt;nc</title>
<path fill="none" stroke="black" d="M973.85,-31.54C982.66,-29.78 992.69,-27.79 1002.21,-25.9"/>
<polygon fill="black" stroke="black" points="1002.84,-29.34 1011.96,-23.95 1001.47,-22.47 1002.84,-29.34"/>
</g>
<!-- nc&#45;&gt;sd -->
<g id="edge109" class="edge">
<title>nc&#45;&gt;sd</title>
<path fill="none" stroke="black" d="M1029.29,-35.6C1028.85,-36.33 1028.41,-37.07 1027.97,-37.81"/>
<polygon fill="black" stroke="black" points="1025.08,-35.82 1022.94,-46.19 1031.08,-39.42 1025.08,-35.82"/>
</g>
<!-- kg&#45;&gt;hl -->
<g id="edge68" class="edge">
<title>kg&#45;&gt;hl</title>
<path fill="none" stroke="black" d="M57.68,-505.77C89.95,-521.62 150.54,-551.39 189.94,-570.74"/>
<polygon fill="black" stroke="black" points="188.32,-573.85 198.84,-575.12 191.41,-567.57 188.32,-573.85"/>
</g>
<!-- kg&#45;&gt;px -->
<g id="edge69" class="edge">
<title>kg&#45;&gt;px</title>
<path fill="none" stroke="black" d="M51.54,-479.87C64.15,-467.88 81.97,-450.92 96.27,-437.32"/>
<polygon fill="black" stroke="black" points="98.29,-440.23 103.12,-430.8 93.47,-435.15 98.29,-440.23"/>
</g>
<!-- rd&#45;&gt;lr -->
<g id="edge81" class="edge">
<title>rd&#45;&gt;lr</title>
<path fill="none" stroke="black" d="M1470.07,-918.5C1452.62,-931.16 1426.03,-950.46 1404.67,-965.97"/>
<polygon fill="black" stroke="black" points="1402.84,-962.98 1396.8,-971.68 1406.95,-968.64 1402.84,-962.98"/>
</g>
<!-- rd&#45;&gt;xl -->
<g id="edge82" class="edge">
<title>rd&#45;&gt;xl</title>
<path fill="none" stroke="black" d="M1485.18,-886.93C1484.4,-882.75 1483.55,-878.19 1482.71,-873.67"/>
<polygon fill="black" stroke="black" points="1486.22,-873.42 1480.94,-864.23 1479.34,-874.7 1486.22,-873.42"/>
</g>
<!-- th&#45;&gt;qb -->
<g id="edge80" class="edge">
<title>th&#45;&gt;qb</title>
<path fill="none" stroke="black" d="M911.92,-70.28C915.56,-66.88 919.51,-63.18 923.42,-59.53"/>
<polygon fill="black" stroke="black" points="925.74,-62.15 930.65,-52.76 920.96,-57.04 925.74,-62.15"/>
</g>
<!-- xd -->
<g id="node54" class="node">
<title>xd</title>
<ellipse fill="none" stroke="black" cx="1163.47" cy="-123.3" rx="27" ry="18"/>
<text text-anchor="middle" x="1163.47" y="-118.62" font-family="Times,serif" font-size="14.00">xd</text>
</g>
<!-- xd&#45;&gt;sn -->
<g id="edge76" class="edge">
<title>xd&#45;&gt;sn</title>
<path fill="none" stroke="black" d="M1144.05,-136.3C1119.7,-152.61 1077.42,-180.91 1046.88,-201.36"/>
<polygon fill="black" stroke="black" points="1045.04,-198.39 1038.67,-206.86 1048.93,-204.2 1045.04,-198.39"/>
</g>
<!-- tn -->
<g id="node55" class="node">
<title>tn</title>
<ellipse fill="none" stroke="black" cx="1191.81" cy="-173.94" rx="27" ry="18"/>
<text text-anchor="middle" x="1191.81" y="-169.26" font-family="Times,serif" font-size="14.00">tn</text>
</g>
<!-- xd&#45;&gt;tn -->
<g id="edge77" class="edge">
<title>xd&#45;&gt;tn</title>
<path fill="none" stroke="black" d="M1173.06,-140.44C1174.22,-142.5 1175.42,-144.65 1176.63,-146.81"/>
<polygon fill="black" stroke="black" points="1173.55,-148.47 1181.48,-155.49 1179.66,-145.05 1173.55,-148.47"/>
</g>
<!-- tn&#45;&gt;sn -->
<g id="edge91" class="edge">
<title>tn&#45;&gt;sn</title>
<path fill="none" stroke="black" d="M1166.55,-181.17C1135.93,-189.94 1084.04,-204.8 1048.49,-214.98"/>
<polygon fill="black" stroke="black" points="1047.67,-211.57 1039.02,-217.69 1049.6,-218.3 1047.67,-211.57"/>
</g>
<!-- tv -->
<g id="node57" class="node">
<title>tv</title>
<ellipse fill="none" stroke="black" cx="1180.09" cy="-244.23" rx="27" ry="18"/>
<text text-anchor="middle" x="1180.09" y="-239.56" font-family="Times,serif" font-size="14.00">tv</text>
</g>
<!-- tn&#45;&gt;tv -->
<g id="edge92" class="edge">
<title>tn&#45;&gt;tv</title>
<path fill="none" stroke="black" d="M1188.79,-192.04C1187.63,-198.96 1186.29,-207.03 1185,-214.74"/>
<polygon fill="black" stroke="black" points="1181.58,-214.02 1183.38,-224.46 1188.48,-215.17 1181.58,-214.02"/>
</g>
<!-- bt -->
<g id="node56" class="node">
<title>bt</title>
<ellipse fill="none" stroke="black" cx="1150.55" cy="-75.34" rx="27" ry="18"/>
<text text-anchor="middle" x="1150.55" y="-70.66" font-family="Times,serif" font-size="14.00">bt</text>
</g>
<!-- bt&#45;&gt;sn -->
<g id="edge83" class="edge">
<title>bt&#45;&gt;sn</title>
<path fill="none" stroke="black" d="M1136.06,-90.89C1112.1,-116.59 1064.01,-168.18 1034.69,-199.64"/>
<polygon fill="black" stroke="black" points="1032.24,-197.13 1027.98,-206.83 1037.36,-201.9 1032.24,-197.13"/>
</g>
<!-- bt&#45;&gt;xd -->
<g id="edge84" class="edge">
<title>bt&#45;&gt;xd</title>
<path fill="none" stroke="black" d="M1155.44,-93.47C1155.5,-93.71 1155.57,-93.95 1155.63,-94.19"/>
<polygon fill="black" stroke="black" points="1152.21,-94.93 1158.19,-103.68 1158.97,-93.11 1152.21,-94.93"/>
</g>
<!-- tv&#45;&gt;sn -->
<g id="edge85" class="edge">
<title>tv&#45;&gt;sn</title>
<path fill="none" stroke="black" d="M1153.16,-241.34C1124.99,-238.31 1080.51,-233.53 1048.63,-230.1"/>
<polygon fill="black" stroke="black" points="1049.34,-226.65 1039.02,-229.06 1048.59,-233.61 1049.34,-226.65"/>
</g>
<!-- nl&#45;&gt;bt -->
<g id="edge86" class="edge">
<title>nl&#45;&gt;bt</title>
<path fill="none" stroke="black" d="M1113.05,-68.5C1113.17,-68.52 1113.28,-68.54 1113.4,-68.56"/>
<polygon fill="black" stroke="black" points="1112.33,-71.92 1122.79,-70.27 1113.58,-65.04 1112.33,-71.92"/>
</g>
<!-- sd&#45;&gt;nl -->
<g id="edge96" class="edge">
<title>sd&#45;&gt;nl</title>
<path fill="none" stroke="black" d="M1039.38,-64.2C1042.22,-64.17 1045.15,-64.14 1048.09,-64.11"/>
<polygon fill="black" stroke="black" points="1047.84,-67.61 1057.8,-64 1047.76,-60.61 1047.84,-67.61"/>
</g>
</g>
</svg>
